<svg width="1440" height="344" viewBox="0 0 1440 344" fill="none" xmlns="http://www.w3.org/2000/svg">
    <defs>
        <linearGradient id="gradient" x1="0" x2="1" y1="0" y2="0">
            <stop offset="0%" stop-color="#440000"/>
            <stop offset="50%" stop-color="rgba(255,0,0,1)"/>
            <stop offset="100%" stop-color="rgba(255,211,0,1)"/>
          </linearGradient>
    </defs>
<path fill-rule="evenodd" clip-rule="evenodd" d="M0 258L60 229.333C120 200.667 240 143.333 360 150.5C480 157.667 600 229.333 720 229.333C840 229.333 960 157.667 1080 107.5C1200 57.3333 1320 28.6667 1380 14.3333L1440 0V344H1380C1320 344 1200 344 1080 344C960 344 840 344 720 344C600 344 480 344 360 344C240 344 120 344 60 344H0V258Z" fill="url(#gradient)"/>
</svg>
