<svg version="1.0"
    width="777px" height="877px" viewBox="0 0 100 100"
    preserveAspectRatio="xMidYMid meet" fill="yellow">
    <g id="spotSVG">
        <image x="0" y="0" width="720" height="629" href="./photo.webp" />
        <path
            d="M161.778 237.637C174.012 239.749 177.814 240.377 183.144 244.392C188.473 248.406 192.463 253.697 196.468 258.801C200.473 263.904 204.494 268.82 209.886 272.085C215.278 275.351 222.042 276.965 231.533 275.466C241.088 273.956 247.598 269.987 252.227 264.522C256.856 259.057 259.602 252.095 261.631 244.601C263.659 237.106 264.969 229.079 266.723 221.482C268.478 213.885 270.677 206.718 274.483 200.945C276.889 197.296 280.198 194.818 284.023 193.034C287.848 191.25 292.189 190.16 296.659 189.288C301.13 188.417 305.73 187.763 310.074 186.852C314.418 185.94 318.504 184.77 321.948 182.867C333.645 176.399 339.609 167.692 341.541 157.917C343.474 148.142 341.375 137.299 336.946 126.56C332.517 115.82 325.758 105.185 318.372 95.8244C310.985 86.4641 302.971 78.3791 296.032 72.7409C281.23 60.7158 268.744 55.1211 257.496 53.5548C246.248 51.9885 236.238 54.4506 226.39 58.539C216.542 62.6273 206.855 68.3419 196.254 73.2806C185.652 78.2193 174.136 82.3822 160.627 83.3671C153.217 83.9074 145.588 82.9375 137.86 81.3788C130.133 79.8201 122.307 77.6725 114.503 75.8575C106.699 74.0425 98.9166 72.56 91.2764 72.3315C83.6362 72.1029 76.138 73.1283 68.902 76.329C64.3482 78.3433 60.7822 81.4075 57.9644 85.1393C55.1466 88.871 53.077 93.2703 51.5159 97.9548C49.9548 102.639 48.9023 107.609 48.1186 112.481C47.3349 117.353 46.8202 122.128 46.3346 126.424C44.9623 138.564 48.7767 156.659 55.9392 175.706C63.1016 194.754 41.0816 234.111 53.1014 250.056C65.1211 266 99.402 282.227 120.872 268.383C142.474 254.453 145.158 239.541 161.153 237.684L161.31 237.672L161.466 237.661L161.622 237.649L161.778 237.637Z"
            fill="none" opacity="1" stroke="#000000" stroke-linecap="round" stroke-linejoin="round"
            stroke-width="0.01" />
    </g>
</svg>